ffmpeg version 4.4.2-0ubuntu0.22.04.1 Copyright (c) 2000-2021 the FFmpeg developers
  built with gcc 11 (Ubuntu 11.2.0-19ubuntu1)
  configuration: --prefix=/usr --extra-version=0ubuntu0.22.04.1 --toolchain=hardened --libdir=/usr/lib/x86_64-linux-gnu --incdir=/usr/include/x86_64-linux-gnu --arch=amd64 --enable-gpl --disable-stripping --enable-gnutls --enable-ladspa --enable-libaom --enable-libass --enable-libbluray --enable-libbs2b --enable-libcaca --enable-libcdio --enable-libcodec2 --enable-libdav1d --enable-libflite --enable-libfontconfig --enable-libfreetype --enable-libfribidi --enable-libgme --enable-libgsm --enable-libjack --enable-libmp3lame --enable-libmysofa --enable-libopenjpeg --enable-libopenmpt --enable-libopus --enable-libpulse --enable-librabbitmq --enable-librubberband --enable-libshine --enable-libsnappy --enable-libsoxr --enable-libspeex --enable-libsrt --enable-libssh --enable-libtheora --enable-libtwolame --enable-libvidstab --enable-libvorbis --enable-libvpx --enable-libwebp --enable-libx265 --enable-libxml2 --enable-libxvid --enable-libzimg --enable-libzmq --enable-libzvbi --enable-lv2 --enable-omx --enable-openal --enable-opencl --enable-opengl --enable-sdl2 --enable-pocketsphinx --enable-librsvg --enable-libmfx --enable-libdc1394 --enable-libdrm --enable-libiec61883 --enable-chromaprint --enable-frei0r --enable-libx264 --enable-shared
  libavutil      56. 70.100 / 56. 70.100
  libavcodec     58.134.100 / 58.134.100
  libavformat    58. 76.100 / 58. 76.100
  libavdevice    58. 13.100 / 58. 13.100
  libavfilter     7.110.100 /  7.110.100
  libswscale      5.  9.100 /  5.  9.100
  libswresample   3.  9.100 /  3.  9.100
  libpostproc    55.  9.100 / 55.  9.100
Input #0, flv, from '/storage/32426326/20250708/32426326-20250708-153222-123.flv':
  Metadata:
    displayWidth    : 2560
    3.1             : false
    2.1             : false
    fps             : 60
    7.1             : false
    audiochannels   : 2
    cdn_ip          : 156.59.188.242
    displayHeight   : 1440
    5.1             : false
    4.1             : false
    encoder         : obs-output module (libobs version 31.0.2)
    fileSize        : 0
    4.0             : false
    Title           : 技术主播没有GG
    Artist          : 蓝音BuBuLine (32426326)
    Comment         : mikufans直播间 32426326 的直播录像
                    : 主播名: 蓝音BuBuLine
                    : 直播标题: 技术主播没有GG
                    : 直播分区: 单机游戏·主机游戏
                    : 录制时间: 2025-07-08T15:32:22.2104049+00:00
                    : 直播服务器:
                    : d1--ov-gotcha07b.bilivideo.com [156.59.188.242]
                    : 
                    : 使用 mikufans录播姬 录制 https://rec.danmuji.org
                    : 录播姬版本: 2.17.3
    RecordedBy      : BililiveRecorder mikufans录播姬
    RecordedFrom    : d1--ov-gotcha07b.bilivideo.com
    StreamServers   : d1--ov-gotcha07b.bilivideo.com [156.59.188.242]
    RecorderVersion : 2.17.3+Branch.tags-v2.17.3.Sha.96407e2eba9a597dd9997c6fb731725f4294a371
    StartTime       : Tue, 08 Jul 2025 15:32:22 +0000
    RoomId          : 32426326
    ShortId         : 0
    Name            : 蓝音BuBuLine
    StreamTitle     : 技术主播没有GG
    AreaNameParent  : 单机游戏
    AreaNameChild   : 主机游戏
  Duration: 06:08:55.91, start: 0.035000, bitrate: 8623 kb/s
  Stream #0:0: Video: h264 (High), yuv420p(tv, bt709, progressive), 2560x1440 [SAR 1:1 DAR 16:9], 10240 kb/s, 60 fps, 59.94 tbr, 1k tbn, 120 tbc
  Stream #0:1: Audio: aac (LC), 48000 Hz, stereo, fltp, 196 kb/s
Stream mapping:
  Stream #0:0 -> #0:0 (h264 (native) -> png (native))
Press [q] to stop, [?] for help
Output #0, image2, to '/storage/32426326/20250708/32426326-20250708-153222-123.all.thumb.png':
  Metadata:
    displayWidth    : 2560
    3.1             : false
    2.1             : false
    fps             : 60
    7.1             : false
    audiochannels   : 2
    cdn_ip          : 156.59.188.242
    displayHeight   : 1440
    5.1             : false
    4.1             : false
    AreaNameChild   : 主机游戏
    fileSize        : 0
    4.0             : false
    Title           : 技术主播没有GG
    Artist          : 蓝音BuBuLine (32426326)
    Comment         : mikufans直播间 32426326 的直播录像
                    : 主播名: 蓝音BuBuLine
                    : 直播标题: 技术主播没有GG
                    : 直播分区: 单机游戏·主机游戏
                    : 录制时间: 2025-07-08T15:32:22.2104049+00:00
                    : 直播服务器:
                    : d1--ov-gotcha07b.bilivideo.com [156.59.188.242]
                    : 
                    : 使用 mikufans录播姬 录制 https://rec.danmuji.org
                    : 录播姬版本: 2.17.3
    RecordedBy      : BililiveRecorder mikufans录播姬
    RecordedFrom    : d1--ov-gotcha07b.bilivideo.com
    StreamServers   : d1--ov-gotcha07b.bilivideo.com [156.59.188.242]
    RecorderVersion : 2.17.3+Branch.tags-v2.17.3.Sha.96407e2eba9a597dd9997c6fb731725f4294a371
    StartTime       : Tue, 08 Jul 2025 15:32:22 +0000
    RoomId          : 32426326
    ShortId         : 0
    Name            : 蓝音BuBuLine
    StreamTitle     : 技术主播没有GG
    AreaNameParent  : 单机游戏
    encoder         : Lavf58.76.100
  Stream #0:0: Video: png, rgb24(pc, gbr/bt709/bt709, progressive), 2560x1440 [SAR 1:1 DAR 16:9], q=2-31, 200 kb/s, 59.94 fps, 59.94 tbn
    Metadata:
      encoder         : Lavc58.134.100 png
frame=    1 fps=0.0 q=0.0 size=N/A time=00:00:00.00 bitrate=N/A speed=   0x    frame=    1 fps=0.0 q=-0.0 Lsize=N/A time=00:00:00.01 bitrate=N/A speed=0.0227x    
video:3085kB audio:0kB subtitle:0kB other streams:0kB global headers:0kB muxing overhead: unknown
ffmpeg version 4.4.2-0ubuntu0.22.04.1 Copyright (c) 2000-2021 the FFmpeg developers
  built with gcc 11 (Ubuntu 11.2.0-19ubuntu1)
  configuration: --prefix=/usr --extra-version=0ubuntu0.22.04.1 --toolchain=hardened --libdir=/usr/lib/x86_64-linux-gnu --incdir=/usr/include/x86_64-linux-gnu --arch=amd64 --enable-gpl --disable-stripping --enable-gnutls --enable-ladspa --enable-libaom --enable-libass --enable-libbluray --enable-libbs2b --enable-libcaca --enable-libcdio --enable-libcodec2 --enable-libdav1d --enable-libflite --enable-libfontconfig --enable-libfreetype --enable-libfribidi --enable-libgme --enable-libgsm --enable-libjack --enable-libmp3lame --enable-libmysofa --enable-libopenjpeg --enable-libopenmpt --enable-libopus --enable-libpulse --enable-librabbitmq --enable-librubberband --enable-libshine --enable-libsnappy --enable-libsoxr --enable-libspeex --enable-libsrt --enable-libssh --enable-libtheora --enable-libtwolame --enable-libvidstab --enable-libvorbis --enable-libvpx --enable-libwebp --enable-libx265 --enable-libxml2 --enable-libxvid --enable-libzimg --enable-libzmq --enable-libzvbi --enable-lv2 --enable-omx --enable-openal --enable-opencl --enable-opengl --enable-sdl2 --enable-pocketsphinx --enable-librsvg --enable-libmfx --enable-libdc1394 --enable-libdrm --enable-libiec61883 --enable-chromaprint --enable-frei0r --enable-libx264 --enable-shared
  libavutil      56. 70.100 / 56. 70.100
  libavcodec     58.134.100 / 58.134.100
  libavformat    58. 76.100 / 58. 76.100
  libavdevice    58. 13.100 / 58. 13.100
  libavfilter     7.110.100 /  7.110.100
  libswscale      5.  9.100 /  5.  9.100
  libswresample   3.  9.100 /  3.  9.100
  libpostproc    55.  9.100 / 55.  9.100
[flv @ 0x558ff631afc0] Auto-inserting h264_mp4toannexb bitstream filter
Input #0, concat, from '/storage/32426326/20250708/32426326-20250708-153222-123.all.concat.txt':
  Duration: N/A, start: 0.000000, bitrate: 10436 kb/s
  Stream #0:0: Video: h264 (High), yuv420p(tv, bt709, progressive), 2560x1440 [SAR 1:1 DAR 16:9], 10240 kb/s, 60 fps, 59.94 tbr, 1k tbn, 120 tbc
  Stream #0:1: Audio: aac (LC), 48000 Hz, stereo, fltp, 196 kb/s
Output #0, flv, to '/storage/32426326/20250708/32426326-20250708-153222-123.all.flv':
  Metadata:
    encoder         : Lavf58.76.100
  Stream #0:0: Video: h264 (High) ([7][0][0][0] / 0x0007), yuv420p(tv, bt709, progressive), 2560x1440 [SAR 1:1 DAR 16:9], q=2-31, 10240 kb/s, 60 fps, 59.94 tbr, 1k tbn, 1k tbc
  Stream #0:1: Audio: aac (LC) ([10][0][0][0] / 0x000A), 48000 Hz, stereo, fltp, 196 kb/s
Stream mapping:
  Stream #0:0 -> #0:0 (copy)
  Stream #0:1 -> #0:1 (copy)
Press [q] to stop, [?] for help
frame=    1 fps=0.0 q=-1.0 size=       0kB time=00:00:00.00 bitrate=N/A speed=N/A    frame= 4502 fps=0.0 q=-1.0 size=   32512kB time=00:01:15.06 bitrate=3548.3kbits/s speed= 150x    frame= 6362 fps=6359 q=-1.0 size=   68096kB time=00:01:46.02 bitrate=5261.3kbits/s speed= 106x    frame= 8124 fps=5410 q=-1.0 size=  100864kB time=00:02:15.39 bitrate=6102.5kbits/s speed=90.2x    frame=11333 fps=5662 q=-1.0 size=  134144kB time=00:03:08.83 bitrate=5819.4kbits/s speed=94.3x    frame=13435 fps=5367 q=-1.0 size=  165120kB time=00:03:43.85 bitrate=6042.5kbits/s speed=89.4x    frame=15462 fps=5148 q=-1.0 size=  199424kB time=00:04:17.64 bitrate=6340.8kbits/s speed=85.8x    frame=17997 fps=5136 q=-1.0 size=  238848kB time=00:04:59.83 bitrate=6525.8kbits/s speed=85.6x    frame=19926 fps=4976 q=-1.0 size=  272384kB time=00:05:31.97 bitrate=6721.4kbits/s speed=82.9x    frame=22207 fps=4929 q=-1.0 size=  312064kB time=00:06:09.93 bitrate=6910.5kbits/s speed=82.1x    frame=24754 fps=4944 q=-1.0 size=  355584kB time=00:06:52.37 bitrate=7063.8kbits/s speed=82.4x    frame=27122 fps=4925 q=-1.0 size=  398592kB time=00:07:31.83 bitrate=7226.7kbits/s speed=82.1x    frame=29163 fps=4855 q=-1.0 size=  433920kB time=00:08:05.85 bitrate=7316.4kbits/s speed=80.9x    frame=32502 fps=4994 q=-1.0 size=  473600kB time=00:09:01.44 bitrate=7165.6kbits/s speed=83.2x    frame=34411 fps=4910 q=-1.0 size=  513280kB time=00:09:33.27 bitrate=7334.7kbits/s speed=81.8x    frame=36751 fps=4894 q=-1.0 size=  547072kB time=00:10:12.25 bitrate=7319.8kbits/s speed=81.5x    frame=39026 fps=4872 q=-1.0 size=  584960kB time=00:10:50.14 bitrate=7370.7kbits/s speed=81.2x    frame=41339 fps=4857 q=-1.0 size=  619776kB time=00:11:28.66 bitrate=7372.6kbits/s speed=80.9x    frame=43857 fps=4867 q=-1.0 size=  659968kB time=00:12:10.61 bitrate=7399.9kbits/s speed=81.1x    frame=46147 fps=4851 q=-1.0 size=  698368kB time=00:12:48.74 bitrate=7442.1kbits/s speed=80.8x    frame=48346 fps=4828 q=-1.0 size=  731648kB time=00:13:25.39 bitrate=7441.9kbits/s speed=80.4x    frame=50986 fps=4849 q=-1.0 size=  768000kB time=00:14:09.38 bitrate=7407.1kbits/s speed=80.8x    frame=52936 fps=4806 q=-1.0 size=  804864kB time=00:14:41.82 bitrate=7477.0kbits/s speed=80.1x    frame=54730 fps=4753 q=-1.0 size=  838656kB time=00:15:11.70 bitrate=7535.7kbits/s speed=79.2x    frame=56644 fps=4715 q=-1.0 size=  877312kB time=00:15:43.58 bitrate=7616.7kbits/s speed=78.5x    frame=59067 fps=4720 q=-1.0 size=  910848kB time=00:16:23.95 bitrate=7583.4kbits/s speed=78.6x    frame=61061 fps=4691 q=-1.0 size=  945408kB time=00:16:57.17 bitrate=7614.0kbits/s speed=78.1x    frame=63620 fps=4707 q=-1.0 size=  985344kB time=00:17:39.78 bitrate=7616.6kbits/s speed=78.4x    frame=66175 fps=4721 q=-1.0 size= 1022720kB time=00:18:22.37 bitrate=7600.1kbits/s speed=78.6x    frame=67954 fps=4681 q=-1.0 size= 1055744kB time=00:18:52.02 bitrate=7640.0kbits/s speed=  78x    frame=69925 fps=4656 q=-1.0 size= 1093120kB time=00:19:24.86 bitrate=7687.4kbits/s speed=77.6x    frame=72209 fps=4653 q=-1.0 size= 1132800kB time=00:20:02.91 bitrate=7714.5kbits/s speed=77.5x    frame=76075 fps=4749 q=-1.0 size= 1164032kB time=00:21:07.33 bitrate=7524.3kbits/s speed=79.1x    frame=79482 fps=4811 q=-1.0 size= 1201152kB time=00:22:04.06 bitrate=7431.5kbits/s speed=80.2x    frame=82204 fps=4830 q=-1.0 size= 1235968kB time=00:22:49.42 bitrate=7393.6kbits/s speed=80.5x    frame=84649 fps=4832 q=-1.0 size= 1269760kB time=00:23:30.13 bitrate=7376.5kbits/s speed=80.5x    frame=86341 fps=4791 q=-1.0 size= 1298176kB time=00:23:58.32 bitrate=7393.8kbits/s speed=79.8x    frame=89010 fps=4806 q=-1.0 size= 1338368kB time=00:24:42.77 bitrate=7394.2kbits/s speed=80.1x    frame=91825 fps=4828 q=-1.0 size= 1375488kB time=00:25:29.66 bitrate=7366.3kbits/s speed=80.4x    frame=94400 fps=4836 q=-1.0 size= 1408768kB time=00:26:12.57 bitrate=7338.7kbits/s speed=80.6x    frame=96713 fps=4831 q=-1.0 size= 1448960kB time=00:26:51.09 bitrate=7367.6kbits/s speed=80.5x    frame=99459 fps=4847 q=-1.0 size= 1486080kB time=00:27:36.84 bitrate=7347.7kbits/s speed=80.7x    frame=101683 fps=4837 q=-1.0 size= 1521152kB time=00:28:13.90 bitrate=7356.5kbits/s speed=80.6x    frame=103873 fps=4826 q=-1.0 size= 1559296kB time=00:28:50.38 bitrate=7382.0kbits/s speed=80.4x    frame=105830 fps=4806 q=-1.0 size= 1596672kB time=00:29:22.98 bitrate=7419.2kbits/s speed=80.1x    frame=107565 fps=4776 q=-1.0 size= 1629440kB time=00:29:51.86 bitrate=7449.4kbits/s speed=79.6x    frame=109504 fps=4756 q=-1.0 size= 1666816kB time=00:30:24.20 bitrate=7485.2kbits/s speed=79.2x    frame=111955 fps=4759 q=-1.0 size= 1705216kB time=00:31:05.03 bitrate=7490.0kbits/s speed=79.3x    frame=113690 fps=4733 q=-1.0 size= 1737984kB time=00:31:33.90 bitrate=7517.6kbits/s speed=78.8x    frame=115636 fps=4715 q=-1.0 size= 1775104kB time=00:32:06.36 bitrate=7548.7kbits/s speed=78.6x    frame=117681 fps=4703 q=-1.0 size= 1813248kB time=00:32:40.42 bitrate=7577.0kbits/s speed=78.3x    frame=119324 fps=4675 q=-1.0 size= 1847808kB time=00:33:07.80 bitrate=7615.0kbits/s speed=77.9x    frame=122075 fps=4691 q=-1.0 size= 1883648kB time=00:33:53.61 bitrate=7587.9kbits/s speed=78.1x    frame=124431 fps=4691 q=-1.0 size= 1919488kB time=00:34:32.89 bitrate=7585.7kbits/s speed=78.2x    frame=126360 fps=4676 q=-1.0 size= 1953792kB time=00:35:05.02 bitrate=7603.4kbits/s speed=77.9x    frame=129188 fps=4693 q=-1.0 size= 1992704kB time=00:35:52.12 bitrate=7585.2kbits/s speed=78.2x    frame=131971 fps=4708 q=-1.0 size= 2031872kB time=00:36:38.46 bitrate=7571.2kbits/s speed=78.4x    frame=134858 fps=4727 q=-1.0 size= 2070272kB time=00:37:26.57 bitrate=7549.1kbits/s speed=78.7x    frame=137394 fps=4733 q=-1.0 size= 2107648kB time=00:38:08.78 bitrate=7543.7kbits/s speed=78.8x    frame=140267 fps=4750 q=-1.0 size= 2145536kB time=00:38:56.67 bitrate=7521.9kbits/s speed=79.1x    frame=142500 fps=4745 q=-1.0 size= 2179072kB time=00:39:33.82 bitrate=7519.9kbits/s speed=  79x    frame=144957 fps=4748 q=-1.0 size= 2217984kB time=00:40:14.80 bitrate=7524.3kbits/s speed=79.1x    frame=147041 fps=4738 q=-1.0 size= 2257152kB time=00:40:49.50 bitrate=7548.7kbits/s speed=78.9x    frame=149974 fps=4756 q=-1.0 size= 2290176kB time=00:41:38.33 bitrate=7509.4kbits/s speed=79.2x    frame=152712 fps=4767 q=-1.0 size= 2324736kB time=00:42:23.96 bitrate=7486.0kbits/s speed=79.4x    frame=154610 fps=4752 q=-1.0 size= 2362112kB time=00:42:55.59 bitrate=7513.0kbits/s speed=79.2x    frame=156307 fps=4732 q=-1.0 size= 2395904kB time=00:43:23.88 bitrate=7537.7kbits/s speed=78.8x    frame=158519 fps=4727 q=-1.0 size= 2433792kB time=00:44:00.73 bitrate=7550.0kbits/s speed=78.7x    frame=160977 fps=4729 q=-1.0 size= 2472448kB time=00:44:41.66 bitrate=7552.9kbits/s speed=78.8x    frame=162720 fps=4711 q=-1.0 size= 2507264kB time=00:45:10.67 bitrate=7577.3kbits/s speed=78.5x    frame=166198 fps=4743 q=-1.0 size= 2544640kB time=00:46:08.61 bitrate=7529.3kbits/s speed=  79x    frame=169478 fps=4769 q=-1.0 size= 2581760kB time=00:47:03.30 bitrate=7491.1kbits/s speed=79.4x    frame=171579 fps=4761 q=-1.0 size= 2615040kB time=00:47:38.27 bitrate=7494.9kbits/s speed=79.3x    frame=174019 fps=4763 q=-1.0 size= 2653440kB time=00:48:18.93 bitrate=7498.3kbits/s speed=79.3x    frame=176143 fps=4756 q=-1.0 size= 2690560kB time=00:48:54.32 bitrate=7511.5kbits/s speed=79.2x    frame=178243 fps=4748 q=-1.0 size= 2723584kB time=00:49:29.27 bitrate=7514.2kbits/s speed=79.1x    frame=181239 fps=4764 q=-1.0 size= 2759168kB time=00:50:19.22 bitrate=7486.4kbits/s speed=79.4x    frame=185702 fps=4818 q=-1.0 size= 2794496kB time=00:51:33.59 bitrate=7400.0kbits/s speed=80.3x    frame=187626 fps=4806 q=-1.0 size= 2832128kB time=00:52:05.64 bitrate=7422.7kbits/s speed=80.1x    frame=189830 fps=4801 q=-1.0 size= 2872320kB time=00:52:42.37 bitrate=7440.6kbits/s speed=  80x    frame=191725 fps=4788 q=-1.0 size= 2908928kB time=00:53:13.91 bitrate=7461.1kbits/s speed=79.8x    frame=193670 fps=4777 q=-1.0 size= 2946560kB time=00:53:46.34 bitrate=7481.6kbits/s speed=79.6x    frame=195656 fps=4767 q=-1.0 size= 2985216kB time=00:54:19.38 bitrate=7502.9kbits/s speed=79.4x    frame=197951 fps=4765 q=-1.0 size= 3025408kB time=00:54:57.64 bitrate=7515.7kbits/s speed=79.4x    frame=199624 fps=4748 q=-1.0 size= 3059456kB time=00:55:25.52 bitrate=7536.6kbits/s speed=79.1x    frame=201620 fps=4739 q=-1.0 size= 3096064kB time=00:55:58.77 bitrate=7551.2kbits/s speed=78.9x    frame=203723 fps=4733 q=-1.0 size= 3135232kB time=00:56:33.81 bitrate=7567.8kbits/s speed=78.8x    frame=205733 fps=4725 q=-1.0 size= 3172352kB time=00:57:07.28 bitrate=7582.6kbits/s speed=78.7x    frame=207773 fps=4717 q=-1.0 size= 3212032kB time=00:57:41.27 bitrate=7602.1kbits/s speed=78.6x    frame=210976 fps=4736 q=-1.0 size= 3249920kB time=00:58:34.58 bitrate=7575.1kbits/s speed=78.9x    frame=214051 fps=4752 q=-1.0 size= 3281408kB time=00:59:25.79 bitrate=7538.6kbits/s speed=79.2x    frame=216643 fps=4756 q=-1.0 size= 3313408kB time=01:00:09.01 bitrate=7521.0kbits/s speed=79.2x    frame=219206 fps=4760 q=-1.0 size= 3346944kB time=01:00:51.72 bitrate=7508.3kbits/s speed=79.3x    frame=221187 fps=4752 q=-1.0 size= 3379200kB time=01:01:24.70 bitrate=7512.8kbits/s speed=79.2x    frame=223019 fps=4740 q=-1.0 size= 3414784kB time=01:01:55.24 bitrate=7529.5kbits/s speed=  79x    frame=225658 fps=4746 q=-1.0 size= 3448064kB time=01:02:39.17 bitrate=7514.0kbits/s speed=79.1x    frame=227571 fps=4736 q=-1.0 size= 3483904kB time=01:03:11.06 bitrate=7528.3kbits/s speed=78.9x    frame=230536 fps=4748 q=-1.0 size= 3520000kB time=01:04:00.43 bitrate=7508.5kbits/s speed=79.1x    frame=233079 fps=4752 q=-1.0 size= 3555584kB time=01:04:42.84 bitrate=7501.6kbits/s speed=79.2x    frame=234769 fps=4738 q=-1.0 size= 3588608kB time=01:05:10.99 bitrate=7516.7kbits/s speed=78.9x    frame=236771 fps=4730 q=-1.0 size= 3623680kB time=01:05:44.32 bitrate=7526.0kbits/s speed=78.8x    frame=238734 fps=4722 q=-1.0 size= 3662080kB time=01:06:17.04 bitrate=7543.2kbits/s speed=78.7x    frame=240728 fps=4715 q=-1.0 size= 3697152kB time=01:06:50.26 bitrate=7552.4kbits/s speed=78.5x    frame=242938 fps=4712 q=-1.0 size= 3737088kB time=01:07:27.02 bitrate=7564.6kbits/s speed=78.5x    frame=245878 fps=4723 q=-1.0 size= 3774976kB time=01:08:16.01 bitrate=7549.9kbits/s speed=78.7x    frame=247780 fps=4715 q=-1.0 size= 3811840kB time=01:08:47.67 bitrate=7565.2kbits/s speed=78.5x    frame=249856 fps=4709 q=-1.0 size= 3849472kB time=01:09:22.28 bitrate=7576.3kbits/s speed=78.5x    frame=251685 fps=4699 q=-1.0 size= 3887360kB time=01:09:52.75 bitrate=7595.3kbits/s speed=78.3x    frame=254097 fps=4701 q=-1.0 size= 3919872kB time=01:10:32.92 bitrate=7586.1kbits/s speed=78.3x    frame=256193 fps=4696 q=-1.0 size= 3954944kB time=01:11:07.87 bitrate=7591.3kbits/s speed=78.2x    frame=258353 fps=4693 q=-1.0 size= 3994112kB time=01:11:43.83 bitrate=7602.5kbits/s speed=78.2x    frame=260132 fps=4682 q=-1.0 size= 4026112kB time=01:12:13.48 bitrate=7610.9kbits/s speed=  78x    frame=262308 fps=4679 q=-1.0 size= 4062208kB time=01:12:49.74 bitrate=7615.5kbits/s speed=  78x    frame=265098 fps=4687 q=-1.0 size= 4099328kB time=01:13:36.22 bitrate=7604.2kbits/s speed=78.1x    frame=268471 fps=4705 q=-1.0 size= 4135936kB time=01:14:32.39 bitrate=7575.7kbits/s speed=78.4x    frame=271694 fps=4720 q=-1.0 size= 4173824kB time=01:15:26.09 bitrate=7554.4kbits/s speed=78.6x    frame=275368 fps=4743 q=-1.0 size= 4211456kB time=01:16:27.28 bitrate=7520.8kbits/s speed=  79x    frame=278376 fps=4754 q=-1.0 size= 4245504kB time=01:17:17.41 bitrate=7499.7kbits/s speed=79.2x    frame=280923 fps=4757 q=-1.0 size= 4284160kB time=01:17:59.88 bitrate=7499.3kbits/s speed=79.2x    frame=284320 fps=4774 q=-1.0 size= 4321792kB time=01:18:56.47 bitrate=7474.8kbits/s speed=79.5x    frame=286676 fps=4773 q=-1.0 size= 4354816kB time=01:19:35.72 bitrate=7470.0kbits/s speed=79.5x    frame=289472 fps=4780 q=-1.0 size= 4392448kB time=01:20:22.29 bitrate=7461.8kbits/s speed=79.6x    frame=292283 fps=4787 q=-1.0 size= 4430848kB time=01:21:09.11 bitrate=7454.6kbits/s speed=79.7x    frame=294934 fps=4791 q=-1.0 size= 4466944kB time=01:21:53.29 bitrate=7447.8kbits/s speed=79.8x    frame=297940 fps=4801 q=-1.0 size= 4504064kB time=01:22:43.38 bitrate=7433.9kbits/s speed=  80x    frame=301656 fps=4822 q=-1.0 size= 4540416kB time=01:23:45.29 bitrate=7401.6kbits/s speed=80.3x    frame=303552 fps=4813 q=-1.0 size= 4572672kB time=01:24:16.87 bitrate=7407.6kbits/s speed=80.2x    frame=305682 fps=4809 q=-1.0 size= 4611584kB time=01:24:52.33 bitrate=7418.6kbits/s speed=80.1x    frame=308718 fps=4819 q=-1.0 size= 4649728kB time=01:25:42.92 bitrate=7406.4kbits/s speed=80.3x    frame=310527 fps=4809 q=-1.0 size= 4682752kB time=01:26:13.06 bitrate=7415.6kbits/s speed=80.1x    frame=312442 fps=4802 q=-1.0 size= 4721408kB time=01:26:44.94 bitrate=7431.0kbits/s speed=  80x    frame=314545 fps=4797 q=-1.0 size= 4761088kB time=01:27:19.98 bitrate=7443.3kbits/s speed=79.9x    frame=317023 fps=4798 q=-1.0 size= 4796160kB time=01:28:01.27 bitrate=7439.5kbits/s speed=79.9x    frame=319000 fps=4792 q=-1.0 size= 4829696kB time=01:28:34.24 bitrate=7445.1kbits/s speed=79.8x    frame=321211 fps=4789 q=-1.0 size= 4868864kB time=01:29:11.05 bitrate=7453.8kbits/s speed=79.8x    frame=323089 fps=4781 q=-1.0 size= 4902656kB time=01:29:42.34 bitrate=7461.9kbits/s speed=79.7x    frame=325673 fps=4784 q=-1.0 size= 4940288kB time=01:30:25.40 bitrate=7459.5kbits/s speed=79.7x    frame=328223 fps=4786 q=-1.0 size= 4978432kB time=01:31:07.87 bitrate=7458.7kbits/s speed=79.7x    frame=330251 fps=4781 q=-1.0 size= 5013504kB time=01:31:41.70 bitrate=7465.1kbits/s speed=79.6x    frame=332324 fps=4776 q=-1.0 size= 5054464kB time=01:32:16.22 bitrate=7479.1kbits/s speed=79.6x    frame=334852 fps=4778 q=-1.0 size= 5090304kB time=01:32:58.32 bitrate=7475.3kbits/s speed=79.6x    frame=336516 fps=4768 q=-1.0 size= 5123840kB time=01:33:26.06 bitrate=7487.3kbits/s speed=79.4x    frame=338624 fps=4764 q=-1.0 size= 5161216kB time=01:34:01.16 bitrate=7495.0kbits/s speed=79.4x    frame=340585 fps=4758 q=-1.0 size= 5199616kB time=01:34:33.83 bitrate=7507.3kbits/s speed=79.3x    frame=342219 fps=4748 q=-1.0 size= 5232128kB time=01:35:01.09 bitrate=7518.1kbits/s speed=79.1x    frame=344260 fps=4743 q=-1.0 size= 5272576kB time=01:35:35.07 bitrate=7531.4kbits/s speed=  79x    frame=346309 fps=4739 q=-1.0 size= 5310208kB time=01:36:09.20 bitrate=7540.3kbits/s speed=78.9x    frame=348148 fps=4731 q=-1.0 size= 5347328kB time=01:36:39.84 bitrate=7552.8kbits/s speed=78.8x    frame=350189 fps=4727 q=-1.0 size= 5387776kB time=01:37:13.84 bitrate=7565.6kbits/s speed=78.7x    frame=352101 fps=4721 q=-1.0 size= 5425408kB time=01:37:45.71 bitrate=7577.1kbits/s speed=78.6x    frame=354656 fps=4724 q=-1.0 size= 5459712kB time=01:38:28.28 bitrate=7570.0kbits/s speed=78.7x    frame=356626 fps=4718 q=-1.0 size= 5498368kB time=01:39:01.07 bitrate=7581.6kbits/s speed=78.6x    frame=358925 fps=4718 q=-1.0 size= 5538560kB time=01:39:39.38 bitrate=7588.1kbits/s speed=78.6x    frame=361459 fps=4720 q=-1.0 size= 5572352kB time=01:40:21.61 bitrate=7580.8kbits/s speed=78.6x    frame=363375 fps=4714 q=-1.0 size= 5610240kB time=01:40:53.54 bitrate=7592.1kbits/s speed=78.5x    frame=366264 fps=4721 q=-1.0 size= 5649408kB time=01:41:41.69 bitrate=7584.8kbits/s speed=78.6x    frame=368444 fps=4718 q=-1.0 size= 5683968kB time=01:42:18.00 bitrate=7586.0kbits/s speed=78.6x    frame=370601 fps=4716 q=-1.0 size= 5723904kB time=01:42:53.92 bitrate=7594.9kbits/s speed=78.6x    frame=372735 fps=4713 q=-1.0 size= 5764096kB time=01:43:29.45 bitrate=7604.4kbits/s speed=78.5x    frame=374437 fps=4705 q=-1.0 size= 5796096kB time=01:43:57.84 bitrate=7611.9kbits/s speed=78.4x    frame=376595 fps=4702 q=-1.0 size= 5835520kB time=01:44:33.79 bitrate=7619.7kbits/s speed=78.3x    frame=379453 fps=4709 q=-1.0 size= 5872896kB time=01:45:21.39 bitrate=7610.8kbits/s speed=78.4x    frame=381271 fps=4702 q=-1.0 size= 5906432kB time=01:45:51.65 bitrate=7617.8kbits/s speed=78.3x    frame=383295 fps=4698 q=-1.0 size= 5946624kB time=01:46:25.40 bitrate=7629.1kbits/s speed=78.3x    frame=385875 fps=4701 q=-1.0 size= 5985280kB time=01:47:08.40 bitrate=7627.3kbits/s speed=78.3x    frame=387718 fps=4694 q=-1.0 size= 6018304kB time=01:47:39.09 bitrate=7632.9kbits/s speed=78.2x    frame=390698 fps=4702 q=-1.0 size= 6059008kB time=01:48:28.75 bitrate=7625.9kbits/s speed=78.3x    frame=393005 fps=4701 q=-1.0 size= 6101504kB time=01:49:07.15 bitrate=7634.4kbits/s speed=78.3x    frame=395397 fps=4702 q=-1.0 size= 6132480kB time=01:49:47.02 bitrate=7626.7kbits/s speed=78.3x    frame=397423 fps=4698 q=-1.0 size= 6172160kB time=01:50:20.79 bitrate=7636.9kbits/s speed=78.3x    frame=399535 fps=4695 q=-1.0 size= 6211840kB time=01:50:55.96 bitrate=7645.4kbits/s speed=78.2x    frame=401338 fps=4689 q=-1.0 size= 6246144kB time=01:51:25.96 bitrate=7653.1kbits/s speed=78.1x    frame=403556 fps=4687 q=-1.0 size= 6286848kB time=01:52:02.93 bitrate=7660.6kbits/s speed=78.1x    frame=405572 fps=4684 q=-1.0 size= 6324480kB time=01:52:36.52 bitrate=7668.2kbits/s speed=  78x    frame=407391 fps=4678 q=-1.0 size= 6361088kB time=01:53:06.80 bitrate=7678.1kbits/s speed=77.9x    frame=410007 fps=4681 q=-1.0 size= 6399232kB time=01:53:50.38 bitrate=7674.9kbits/s speed=  78x    frame=412150 fps=4678 q=-1.0 size= 6438400kB time=01:54:26.06 bitrate=7681.7kbits/s speed=77.9x    frame=414203 fps=4675 q=-1.0 size= 6470400kB time=01:55:00.29 bitrate=7681.6kbits/s speed=77.9x    frame=416375 fps=4673 q=-1.0 size= 6508288kB time=01:55:36.47 bitrate=7686.3kbits/s speed=77.9x    frame=418525 fps=4671 q=-1.0 size= 6546432kB time=01:56:12.29 bitrate=7691.6kbits/s speed=77.8x    frame=420082 fps=4662 q=-1.0 size= 6577664kB time=01:56:38.18 bitrate=7699.7kbits/s speed=77.7x    frame=423011 fps=4669 q=-1.0 size= 6615296kB time=01:57:26.98 bitrate=7690.2kbits/s speed=77.8x    frame=425066 fps=4666 q=-1.0 size= 6654976kB time=01:58:01.23 bitrate=7698.9kbits/s speed=77.7x    frame=426949 fps=4661 q=-1.0 size= 6686720kB time=01:58:32.60 bitrate=7701.5kbits/s speed=77.6x    frame=429896 fps=4668 q=-1.0 size= 6719744kB time=01:59:21.69 bitrate=7686.5kbits/s speed=77.8x    frame=431944 fps=4664 q=-1.0 size= 6753280kB time=01:59:55.80 bitrate=7688.2kbits/s speed=77.7x    frame=433710 fps=4658 q=-1.0 size= 6785536kB time=02:00:25.23 bitrate=7693.5kbits/s speed=77.6x    frame=435528 fps=4653 q=-1.0 size= 6818816kB time=02:00:55.52 bitrate=7698.9kbits/s speed=77.5x    frame=437399 fps=4648 q=-1.0 size= 6851840kB time=02:01:26.66 bitrate=7703.2kbits/s speed=77.4x    frame=440133 fps=4652 q=-1.0 size= 6884096kB time=02:02:12.21 bitrate=7691.3kbits/s speed=77.5x    frame=442228 fps=4650 q=-1.0 size= 6918400kB time=02:02:47.10 bitrate=7693.1kbits/s speed=77.5x    frame=444547 fps=4650 q=-1.0 size= 6955008kB time=02:03:25.69 bitrate=7693.5kbits/s speed=77.5x    frame=447679 fps=4658 q=-1.0 size= 6990080kB time=02:04:17.87 bitrate=7678.2kbits/s speed=77.6x    frame=449539 fps=4653 q=-1.0 size= 7026688kB time=02:04:48.85 bitrate=7686.4kbits/s speed=77.5x    frame=452163 fps=4656 q=-1.0 size= 7064320kB time=02:05:32.58 bitrate=7682.7kbits/s speed=77.6x    frame=454115 fps=4652 q=-1.0 size= 7096576kB time=02:06:05.06 bitrate=7684.7kbits/s speed=77.5x    frame=456694 fps=4655 q=-1.0 size= 7132416kB time=02:06:48.06 bitrate=7679.8kbits/s speed=77.5x    frame=458670 fps=4651 q=-1.0 size= 7169536kB time=02:07:20.97 bitrate=7686.6kbits/s speed=77.5x    frame=460419 fps=4646 q=-1.0 size= 7202048kB time=02:07:50.12 bitrate=7692.1kbits/s speed=77.4x    frame=462251 fps=4641 q=-1.0 size= 7239936kB time=02:08:20.65 bitrate=7701.9kbits/s speed=77.3x    frame=464794 fps=4643 q=-1.0 size= 7276800kB time=02:09:02.99 bitrate=7698.8kbits/s speed=77.3x    frame=466551 fps=4637 q=-1.0 size= 7311360kB time=02:09:32.23 bitrate=7706.2kbits/s speed=77.3x    frame=469219 fps=4641 q=-1.0 size= 7349248kB time=02:10:16.67 bitrate=7702.1kbits/s speed=77.3x    frame=471078 fps=4636 q=-1.0 size= 7385856kB time=02:10:47.67 bitrate=7709.9kbits/s speed=77.2x    frame=472928 fps=4631 q=-1.0 size= 7419904kB time=02:11:18.50 bitrate=7715.2kbits/s speed=77.2x    frame=475073 fps=4630 q=-1.0 size= 7459072kB time=02:11:54.23 bitrate=7720.9kbits/s speed=77.1x    frame=478038 fps=4636 q=-1.0 size= 7496448kB time=02:12:43.60 bitrate=7711.4kbits/s speed=77.2x    frame=480443 fps=4637 q=-1.0 size= 7529728kB time=02:13:23.69 bitrate=7706.9kbits/s speed=77.2x    frame=483501 fps=4644 q=-1.0 size= 7567872kB time=02:14:14.61 bitrate=7697.0kbits/s speed=77.4x    frame=485590 fps=4642 q=-1.0 size= 7607040kB time=02:14:49.42 bitrate=7703.5kbits/s speed=77.3x    frame=488042 fps=4643 q=-1.0 size= 7639040kB time=02:15:30.27 bitrate=7697.0kbits/s speed=77.3x    frame=489924 fps=4639 q=-1.0 size= 7675392kB time=02:16:01.61 bitrate=7704.0kbits/s speed=77.3x    frame=491840 fps=4635 q=-1.0 size= 7712000kB time=02:16:33.54 bitrate=7710.5kbits/s speed=77.2x    frame=493874 fps=4632 q=-1.0 size= 7749632kB time=02:17:07.42 bitrate=7716.3kbits/s speed=77.2x    frame=497478 fps=4644 q=-1.0 size= 7791616kB time=02:18:07.46 bitrate=7701.9kbits/s speed=77.4x    frame=499597 fps=4642 q=-1.0 size= 7831552kB time=02:18:42.73 bitrate=7708.5kbits/s speed=77.3x    frame=502186 fps=4645 q=-1.0 size= 7865856kB time=02:19:25.87 bitrate=7702.4kbits/s speed=77.4x    frame=504596 fps=4646 q=-1.0 size= 7903744kB time=02:20:06.02 bitrate=7702.5kbits/s speed=77.4x    frame=506692 fps=4644 q=-1.0 size= 7940608kB time=02:20:40.93 bitrate=7706.4kbits/s speed=77.4x    frame=508662 fps=4640 q=-1.0 size= 7975168kB time=02:21:13.74 bitrate=7710.0kbits/s speed=77.3x    frame=510615 fps=4637 q=-1.0 size= 8013312kB time=02:21:46.27 bitrate=7717.3kbits/s speed=77.2x    frame=512525 fps=4633 q=-1.0 size= 8050432kB time=02:22:18.10 bitrate=7724.1kbits/s speed=77.2x    frame=515336 fps=4638 q=-1.0 size= 8082432kB time=02:23:04.92 bitrate=7712.5kbits/s speed=77.3x    frame=517199 fps=4634 q=-1.0 size= 8120064kB time=02:23:35.98 bitrate=7720.5kbits/s speed=77.2x    frame=519048 fps=4629 q=-1.0 size= 8158720kB time=02:24:06.74 bitrate=7729.6kbits/s speed=77.1x    frame=521156 fps=4628 q=-1.0 size= 8190464kB time=02:24:41.85 bitrate=7728.3kbits/s speed=77.1x    frame=523497 fps=4628 q=-1.0 size= 8227328kB time=02:25:20.86 bitrate=7728.4kbits/s speed=77.1x    frame=525604 fps=4626 q=-1.0 size= 8268288kB time=02:25:55.94 bitrate=7735.7kbits/s speed=77.1x    frame=527386 fps=4621 q=-1.0 size= 8301056kB time=02:26:25.59 bitrate=7740.2kbits/s speed=  77x    frame=529476 fps=4619 q=-1.0 size= 8342016kB time=02:27:00.43 bitrate=7747.7kbits/s speed=  77x    frame=531510 fps=4617 q=-1.0 size= 8381440kB time=02:27:34.31 bitrate=7754.5kbits/s speed=76.9x    frame=533417 fps=4613 q=-1.0 size= 8416256kB time=02:28:06.07 bitrate=7758.9kbits/s speed=76.9x    frame=535363 fps=4610 q=-1.0 size= 8454912kB time=02:28:38.46 bitrate=7766.2kbits/s speed=76.8x    frame=538039 fps=4613 q=-1.0 size= 8491776kB time=02:29:23.07 bitrate=7761.2kbits/s speed=76.9x    frame=540197 fps=4612 q=-1.0 size= 8524800kB time=02:29:59.03 bitrate=7760.3kbits/s speed=76.8x    frame=542109 fps=4609 q=-1.0 size= 8562688kB time=02:30:30.87 bitrate=7767.3kbits/s speed=76.8x    frame=544749 fps=4612 q=-1.0 size= 8600832kB time=02:31:14.82 bitrate=7764.1kbits/s speed=76.8x    frame=546372 fps=4606 q=-1.0 size= 8634624kB time=02:31:41.85 bitrate=7771.5kbits/s speed=76.7x    frame=548280 fps=4603 q=-1.0 size= 8674304kB time=02:32:13.67 bitrate=7780.0kbits/s speed=76.7x    frame=550513 fps=4602 q=-1.0 size= 8712192kB time=02:32:50.86 bitrate=7782.3kbits/s speed=76.7x    frame=552735 fps=4601 q=-1.0 size= 8745472kB time=02:33:27.87 bitrate=7780.6kbits/s speed=76.7x    frame=555124 fps=4602 q=-1.0 size= 8785152kB time=02:34:07.72 bitrate=7782.2kbits/s speed=76.7x    frame=558079 fps=4607 q=-1.0 size= 8823808kB time=02:34:56.91 bitrate=7775.1kbits/s speed=76.8x    frame=559679 fps=4602 q=-1.0 size= 8856064kB time=02:35:23.57 bitrate=7781.2kbits/s speed=76.7x    frame=562858 fps=4609 q=-1.0 size= 8893696kB time=02:36:16.56 bitrate=7770.1kbits/s speed=76.8x    frame=566056 fps=4616 q=-1.0 size= 8931328kB time=02:37:09.81 bitrate=7758.9kbits/s speed=76.9x    frame=569153 fps=4622 q=-1.0 size= 8965632kB time=02:38:01.44 bitrate=7746.3kbits/s speed=  77x    frame=572151 fps=4628 q=-1.0 size= 9003264kB time=02:38:51.39 bitrate=7738.1kbits/s speed=77.1x    frame=574687 fps=4630 q=-1.0 size= 9037568kB time=02:39:33.63 bitrate=7733.3kbits/s speed=77.1x    frame=578004 fps=4638 q=-1.0 size= 9069312kB time=02:40:28.87 bitrate=7715.9kbits/s speed=77.3x    frame=579941 fps=4635 q=-1.0 size= 9107968kB time=02:41:01.13 bitrate=7723.0kbits/s speed=77.2x    frame=581924 fps=4632 q=-1.0 size= 9147904kB time=02:41:34.17 bitrate=7730.4kbits/s speed=77.2x    frame=584523 fps=4634 q=-1.0 size= 9180416kB time=02:42:17.48 bitrate=7723.3kbits/s speed=77.2x    frame=586918 fps=4635 q=-1.0 size= 9218304kB time=02:42:57.38 bitrate=7723.6kbits/s speed=77.2x    frame=590043 fps=4641 q=-1.0 size= 9255936kB time=02:43:49.41 bitrate=7714.1kbits/s speed=77.3x    frame=592092 fps=4639 q=-1.0 size= 9288448kB time=02:44:23.58 bitrate=7714.3kbits/s speed=77.3x    frame=594081 fps=4636 q=-1.0 size= 9325056kB time=02:44:56.71 bitrate=7718.8kbits/s speed=77.2x    frame=596696 fps=4639 q=-1.0 size= 9361152kB time=02:45:40.29 bitrate=7714.7kbits/s speed=77.3x    frame=598802 fps=4637 q=-1.0 size= 9394176kB time=02:46:15.35 bitrate=7714.7kbits/s speed=77.2x    frame=600883 fps=4635 q=-1.0 size= 9435648kB time=02:46:50.03 bitrate=7721.9kbits/s speed=77.2x    frame=603985 fps=4641 q=-1.0 size= 9476096kB time=02:47:41.67 bitrate=7715.2kbits/s speed=77.3x    frame=606428 fps=4642 q=-1.0 size= 9512704kB time=02:48:22.39 bitrate=7713.8kbits/s speed=77.3x    frame=609688 fps=4649 q=-1.0 size= 9552896kB time=02:49:16.71 bitrate=7705.0kbits/s speed=77.5x    frame=612086 fps=4650 q=-1.0 size= 9591552kB time=02:49:56.64 bitrate=7705.9kbits/s speed=77.5x    frame=614322 fps=4649 q=-1.0 size= 9626624kB time=02:50:33.89 bitrate=7705.9kbits/s speed=77.4x    frame=616568 fps=4648 q=-1.0 size= 9665280kB time=02:51:11.32 bitrate=7708.6kbits/s speed=77.4x    frame=619040 fps=4650 q=-1.0 size= 9703936kB time=02:51:52.49 bitrate=7708.6kbits/s speed=77.5x    frame=621039 fps=4647 q=-1.0 size= 9737216kB time=02:52:25.80 bitrate=7710.1kbits/s speed=77.4x    frame=623336 fps=4647 q=-1.0 size= 9776384kB time=02:53:04.04 bitrate=7712.6kbits/s speed=77.4x    frame=625605 fps=4646 q=-1.0 size= 9812992kB time=02:53:41.88 bitrate=7713.4kbits/s speed=77.4x    frame=628239 fps=4649 q=-1.0 size= 9851136kB time=02:54:25.76 bitrate=7710.9kbits/s speed=77.4x    frame=630655 fps=4649 q=-1.0 size= 9890048kB time=02:55:05.97 bitrate=7711.7kbits/s speed=77.5x    frame=633102 fps=4650 q=-1.0 size= 9923584kB time=02:55:46.76 bitrate=7708.0kbits/s speed=77.5x    frame=635231 fps=4649 q=-1.0 size= 9962496kB time=02:56:22.21 bitrate=7712.3kbits/s speed=77.4x    frame=637368 fps=4647 q=-1.0 size= 9998848kB time=02:56:57.82 bitrate=7714.4kbits/s speed=77.4x    frame=639511 fps=4646 q=-1.0 size=10036736kB time=02:57:33.55 bitrate=7717.7kbits/s speed=77.4x    frame=641632 fps=4645 q=-1.0 size=10075904kB time=02:58:08.85 bitrate=7722.2kbits/s speed=77.4x    frame=643821 fps=4644 q=-1.0 size=10115072kB time=02:58:45.34 bitrate=7725.9kbits/s speed=77.4x    frame=645745 fps=4641 q=-1.0 size=10151680kB time=02:59:17.38 bitrate=7730.7kbits/s speed=77.3x    frame=647800 fps=4639 q=-1.0 size=10188032kB time=02:59:51.58 bitrate=7733.8kbits/s speed=77.3x    frame=650091 fps=4639 q=-1.0 size=10227968kB time=03:00:29.77 bitrate=7736.8kbits/s speed=77.3x    frame=651992 fps=4636 q=-1.0 size=10262272kB time=03:01:01.45 bitrate=7740.1kbits/s speed=77.2x    frame=654100 fps=4634 q=-1.0 size=10300672kB time=03:01:36.55 bitrate=7744.0kbits/s speed=77.2x    frame=656196 fps=4633 q=-1.0 size=10340096kB time=03:02:11.43 bitrate=7748.8kbits/s speed=77.2x    frame=658136 fps=4630 q=-1.0 size=10375424kB time=03:02:43.78 bitrate=7752.4kbits/s speed=77.1x    frame=660216 fps=4628 q=-1.0 size=10413056kB time=03:03:18.42 bitrate=7756.0kbits/s speed=77.1x    frame=662199 fps=4626 q=-1.0 size=10449664kB time=03:03:51.45 bitrate=7760.0kbits/s speed=77.1x    frame=664186 fps=4624 q=-1.0 size=10484480kB time=03:04:24.54 bitrate=7762.5kbits/s speed=  77x    frame=666331 fps=4622 q=-1.0 size=10523136kB time=03:05:00.29 bitrate=7766.1kbits/s speed=  77x    frame=668513 fps=4622 q=-1.0 size=10561792kB time=03:05:36.65 bitrate=7769.1kbits/s speed=  77x    frame=670299 fps=4618 q=-1.0 size=10595840kB time=03:06:06.41 bitrate=7773.4kbits/s speed=76.9x    frame=672454 fps=4617 q=-1.0 size=10635264kB time=03:06:42.32 bitrate=7777.3kbits/s speed=76.9x    frame=674661 fps=4616 q=-1.0 size=10676224kB time=03:07:19.08 bitrate=7781.7kbits/s speed=76.9x    frame=676561 fps=4613 q=-1.0 size=10710528kB time=03:07:50.71 bitrate=7784.8kbits/s speed=76.9x    frame=678566 fps=4611 q=-1.0 size=10748160kB time=03:08:24.13 bitrate=7789.1kbits/s speed=76.8x    frame=680616 fps=4610 q=-1.0 size=10786816kB time=03:08:58.27 bitrate=7793.6kbits/s speed=76.8x    frame=683188 fps=4611 q=-1.0 size=10819584kB time=03:09:41.14 bitrate=7787.8kbits/s speed=76.8x    frame=685376 fps=4610 q=-1.0 size=10858752kB time=03:10:17.56 bitrate=7791.1kbits/s speed=76.8x    frame=687310 fps=4608 q=-1.0 size=10893056kB time=03:10:49.80 bitrate=7793.7kbits/s speed=76.8x    frame=689268 fps=4605 q=-1.0 size=10928896kB time=03:11:22.43 bitrate=7797.1kbits/s speed=76.7x    frame=691142 fps=4602 q=-1.0 size=10963200kB time=03:11:53.65 bitrate=7800.3kbits/s speed=76.7x    frame=693386 fps=4602 q=-1.0 size=11004416kB time=03:12:31.05 bitrate=7804.3kbits/s speed=76.7x    frame=696124 fps=4605 q=-1.0 size=11042304kB time=03:13:16.66 bitrate=7800.4kbits/s speed=76.7x    frame=698656 fps=4606 q=-1.0 size=11080448kB time=03:13:58.84 bitrate=7799.0kbits/s speed=76.7x    frame=700749 fps=4605 q=-1.0 size=11119872kB time=03:14:33.70 bitrate=7803.3kbits/s speed=76.7x    frame=702906 fps=4604 q=-1.0 size=11158528kB time=03:15:09.61 bitrate=7806.5kbits/s speed=76.7x    frame=704788 fps=4601 q=-1.0 size=11193088kB time=03:15:41.00 bitrate=7809.7kbits/s speed=76.7x    frame=707035 fps=4601 q=-1.0 size=11233280kB time=03:16:18.41 bitrate=7812.9kbits/s speed=76.6x    frame=709091 fps=4599 q=-1.0 size=11271168kB time=03:16:52.62 bitrate=7816.5kbits/s speed=76.6x    frame=711172 fps=4598 q=-1.0 size=11309824kB time=03:17:27.32 bitrate=7820.3kbits/s speed=76.6x    frame=713413 fps=4597 q=-1.0 size=11351040kB time=03:18:04.65 bitrate=7824.2kbits/s speed=76.6x    frame=715515 fps=4596 q=-1.0 size=11389696kB time=03:18:39.65 bitrate=7827.8kbits/s speed=76.6x    frame=717531 fps=4594 q=-1.0 size=11427584kB time=03:19:13.24 bitrate=7831.7kbits/s speed=76.5x    frame=720425 fps=4598 q=-1.0 size=11465728kB time=03:20:01.45 bitrate=7826.3kbits/s speed=76.6x    frame=722506 fps=4597 q=-1.0 size=11504640kB time=03:20:36.12 bitrate=7830.3kbits/s speed=76.6x    frame=724463 fps=4595 q=-1.0 size=11541504kB time=03:21:08.72 bitrate=7834.1kbits/s speed=76.5x    frame=726701 fps=4594 q=-1.0 size=11582464kB time=03:21:45.96 bitrate=7837.8kbits/s speed=76.5x    frame=728858 fps=4593 q=-1.0 size=11621888kB time=03:22:21.89 bitrate=7841.2kbits/s speed=76.5x    frame=730810 fps=4591 q=-1.0 size=11657216kB time=03:22:54.40 bitrate=7844.0kbits/s speed=76.5x    frame=733052 fps=4591 q=-1.0 size=11698688kB time=03:23:31.74 bitrate=7847.8kbits/s speed=76.5x    frame=735164 fps=4590 q=-1.0 size=11737600kB time=03:24:06.92 bitrate=7851.3kbits/s speed=76.5x    frame=737102 fps=4587 q=-1.0 size=11773952kB time=03:24:39.21 bitrate=7854.9kbits/s speed=76.4x    frame=739104 fps=4585 q=-1.0 size=11810304kB time=03:25:12.55 bitrate=7857.8kbits/s speed=76.4x    frame=741210 fps=4584 q=-1.0 size=11848704kB time=03:25:47.64 bitrate=7861.0kbits/s speed=76.4x    frame=742936 fps=4581 q=-1.0 size=11882496kB time=03:26:16.43 bitrate=7865.1kbits/s speed=76.3x    frame=744995 fps=4579 q=-1.0 size=11920896kB time=03:26:50.71 bitrate=7868.7kbits/s speed=76.3x    frame=746954 fps=4577 q=-1.0 size=11958528kB time=03:27:23.36 bitrate=7872.8kbits/s speed=76.3x    frame=748808 fps=4575 q=-1.0 size=11994624kB time=03:27:54.23 bitrate=7877.0kbits/s speed=76.2x    frame=750968 fps=4574 q=-1.0 size=12034816kB time=03:28:30.23 bitrate=7880.7kbits/s speed=76.2x    frame=752938 fps=4572 q=-1.0 size=12072704kB time=03:29:03.04 bitrate=7884.8kbits/s speed=76.2x    frame=754867 fps=4570 q=-1.0 size=12108800kB time=03:29:35.18 bitrate=7888.2kbits/s speed=76.1x    frame=757041 fps=4569 q=-1.0 size=12148992kB time=03:30:11.39 bitrate=7891.6kbits/s speed=76.1x    frame=759124 fps=4568 q=-1.0 size=12187392kB time=03:30:46.11 bitrate=7894.8kbits/s speed=76.1x    frame=761066 fps=4566 q=-1.0 size=12223488kB time=03:31:18.47 bitrate=7898.0kbits/s speed=76.1x    frame=763246 fps=4565 q=-1.0 size=12264448kB time=03:31:54.76 bitrate=7901.9kbits/s speed=  76x    frame=764992 fps=4562 q=-1.0 size=12297216kB time=03:32:23.84 bitrate=7904.9kbits/s speed=  76x    frame=767172 fps=4561 q=-1.0 size=12338688kB time=03:33:00.16 bitrate=7909.0kbits/s speed=  76x    frame=769422 fps=4561 q=-1.0 size=12379136kB time=03:33:37.66 bitrate=7911.7kbits/s speed=  76x    frame=771236 fps=4558 q=-1.0 size=12412672kB time=03:34:07.87 bitrate=7914.5kbits/s speed=75.9x    frame=773455 fps=4558 q=-1.0 size=12452352kB time=03:34:44.87 bitrate=7917.0kbits/s speed=75.9x    frame=775666 fps=4558 q=-1.0 size=12493568kB time=03:35:21.70 bitrate=7920.6kbits/s speed=75.9x    frame=777675 fps=4556 q=-1.0 size=12531968kB time=03:35:55.19 bitrate=7924.4kbits/s speed=75.9x    frame=779873 fps=4555 q=-1.0 size=12571648kB time=03:36:31.81 bitrate=7927.1kbits/s speed=75.9x    frame=782095 fps=4555 q=-1.0 size=12613120kB time=03:37:08.83 bitrate=7930.6kbits/s speed=75.9x    frame=783651 fps=4551 q=-1.0 size=12645120kB time=03:37:34.75 bitrate=7934.9kbits/s speed=75.8x    frame=785830 fps=4550 q=-1.0 size=12685568kB time=03:38:11.07 bitrate=7938.2kbits/s speed=75.8x    frame=788047 fps=4550 q=-1.0 size=12726016kB time=03:38:48.01 bitrate=7941.2kbits/s speed=75.8x    frame=790020 fps=4548 q=-1.0 size=12763904kB time=03:39:20.86 bitrate=7944.9kbits/s speed=75.8x    frame=792221 fps=4548 q=-1.0 size=12804608kB time=03:39:57.54 bitrate=7948.1kbits/s speed=75.8x    frame=794212 fps=4546 q=-1.0 size=12843008kB time=03:40:30.69 bitrate=7952.0kbits/s speed=75.7x    frame=796107 fps=4544 q=-1.0 size=12879616kB time=03:41:02.28 bitrate=7955.6kbits/s speed=75.7x    frame=798189 fps=4543 q=-1.0 size=12920064kB time=03:41:36.93 bitrate=7959.8kbits/s speed=75.7x    frame=800301 fps=4542 q=-1.0 size=12960768kB time=03:42:12.14 bitrate=7963.8kbits/s speed=75.7x    frame=802134 fps=4540 q=-1.0 size=12996096kB time=03:42:42.67 bitrate=7967.3kbits/s speed=75.6x    frame=804408 fps=4540 q=-1.0 size=13038336kB time=03:43:20.57 bitrate=7970.6kbits/s speed=75.6x    frame=806479 fps=4538 q=-1.0 size=13078272kB time=03:43:55.06 bitrate=7974.4kbits/s speed=75.6x    frame=808306 fps=4536 q=-1.0 size=13112832kB time=03:44:25.46 bitrate=7977.5kbits/s speed=75.6x    frame=810449 fps=4535 q=-1.0 size=13152256kB time=03:45:01.17 bitrate=7980.3kbits/s speed=75.6x    frame=812594 fps=4534 q=-1.0 size=13192960kB time=03:45:36.90 bitrate=7983.9kbits/s speed=75.5x    frame=814766 fps=4534 q=-1.0 size=13232896kB time=03:46:13.10 bitrate=7986.7kbits/s speed=75.5x    frame=817066 fps=4534 q=-1.0 size=13274112kB time=03:46:51.42 bitrate=7989.0kbits/s speed=75.5x    frame=819163 fps=4533 q=-1.0 size=13314560kB time=03:47:26.35 bitrate=7992.8kbits/s speed=75.5x    frame=821134 fps=4531 q=-1.0 size=13352192kB time=03:47:59.20 bitrate=7996.2kbits/s speed=75.5x    frame=823373 fps=4531 q=-1.0 size=13394176kB time=03:48:36.49 bitrate=7999.5kbits/s speed=75.5x    frame=825515 fps=4531 q=-1.0 size=13434368kB time=03:49:12.19 bitrate=8002.7kbits/s speed=75.5x    frame=827502 fps=4529 q=-1.0 size=13470720kB time=03:49:45.28 bitrate=8005.1kbits/s speed=75.5x    frame=829496 fps=4528 q=-1.0 size=13509376kB time=03:50:18.51 bitrate=8008.7kbits/s speed=75.4x    frame=831700 fps=4527 q=-1.0 size=13549312kB time=03:50:55.22 bitrate=8011.1kbits/s speed=75.4x    frame=833582 fps=4525 q=-1.0 size=13585408kB time=03:51:26.54 bitrate=8014.4kbits/s speed=75.4x    frame=835826 fps=4525 q=-1.0 size=13626880kB time=03:52:03.93 bitrate=8017.2kbits/s speed=75.4x    frame=837933 fps=4524 q=-1.0 size=13667584kB time=03:52:39.03 bitrate=8021.0kbits/s speed=75.4x    frame=839667 fps=4521 q=-1.0 size=13702144kB time=03:53:07.93 bitrate=8024.6kbits/s speed=75.3x    frame=841870 fps=4521 q=-1.0 size=13743104kB time=03:53:44.64 bitrate=8027.5kbits/s speed=75.3x    frame=844023 fps=4520 q=-1.0 size=13782784kB time=03:54:20.52 bitrate=8030.2kbits/s speed=75.3x    frame=846068 fps=4519 q=-1.0 size=13824000kB time=03:54:54.60 bitrate=8034.7kbits/s speed=75.3x    frame=848131 fps=4518 q=-1.0 size=13863680kB time=03:55:28.96 bitrate=8038.2kbits/s speed=75.3x    frame=850099 fps=4517 q=-1.0 size=13900032kB time=03:56:01.77 bitrate=8040.6kbits/s speed=75.2x    frame=852010 fps=4515 q=-1.0 size=13936128kB time=03:56:33.62 bitrate=8043.4kbits/s speed=75.2x    frame=854108 fps=4514 q=-1.0 size=13976832kB time=03:57:08.57 bitrate=8047.1kbits/s speed=75.2x    frame=856184 fps=4513 q=-1.0 size=14015488kB time=03:57:43.17 bitrate=8049.7kbits/s speed=75.2x    frame=858103 fps=4511 q=-1.0 size=14050560kB time=03:58:15.12 bitrate=8051.8kbits/s speed=75.2x    frame=860215 fps=4510 q=-1.0 size=14090496kB time=03:58:50.33 bitrate=8054.9kbits/s speed=75.1x    frame=862259 fps=4509 q=-1.0 size=14129920kB time=03:59:24.36 bitrate=8058.3kbits/s speed=75.1x    frame=864294 fps=4508 q=-1.0 size=14166016kB time=03:59:58.27 bitrate=8059.9kbits/s speed=75.1x    frame=866455 fps=4508 q=-1.0 size=14205952kB time=04:00:34.28 bitrate=8062.4kbits/s speed=75.1x    frame=868474 fps=4506 q=-1.0 size=14244096kB time=04:01:07.89 bitrate=8065.3kbits/s speed=75.1x    frame=870692 fps=4506 q=-1.0 size=14283776kB time=04:01:44.82 bitrate=8067.2kbits/s speed=75.1x    frame=872900 fps=4506 q=-1.0 size=14324480kB time=04:02:21.61 bitrate=8069.7kbits/s speed=75.1x    frame=874988 fps=4505 q=-1.0 size=14361600kB time=04:02:56.41 bitrate=8071.3kbits/s speed=75.1x    frame=877070 fps=4504 q=-1.0 size=14401792kB time=04:03:31.09 bitrate=8074.6kbits/s speed=  75x    frame=879118 fps=4503 q=-1.0 size=14441216kB time=04:04:05.23 bitrate=8077.9kbits/s speed=  75x    frame=881235 fps=4503 q=-1.0 size=14479616kB time=04:04:40.51 bitrate=8079.9kbits/s speed=  75x    frame=883277 fps=4501 q=-1.0 size=14518016kB time=04:05:14.53 bitrate=8082.6kbits/s speed=  75x    frame=885417 fps=4501 q=-1.0 size=14557952kB time=04:05:50.18 bitrate=8085.2kbits/s speed=  75x    frame=887447 fps=4500 q=-1.0 size=14597120kB time=04:06:23.98 bitrate=8088.5kbits/s speed=  75x    frame=889450 fps=4499 q=-1.0 size=14633728kB time=04:06:57.37 bitrate=8090.5kbits/s speed=74.9x    frame=891553 fps=4498 q=-1.0 size=14674432kB time=04:07:32.39 bitrate=8093.8kbits/s speed=74.9x    frame=893610 fps=4497 q=-1.0 size=14713600kB time=04:08:06.66 bitrate=8096.8kbits/s speed=74.9x    frame=895482 fps=4495 q=-1.0 size=14749952kB time=04:08:37.82 bitrate=8099.8kbits/s speed=74.9x    frame=897558 fps=4494 q=-1.0 size=14790144kB time=04:09:12.42 bitrate=8103.1kbits/s speed=74.9x    frame=899552 fps=4493 q=-1.0 size=14829056kB time=04:09:45.64 bitrate=8106.4kbits/s speed=74.8x    frame=901501 fps=4491 q=-1.0 size=14864896kB time=04:10:18.15 bitrate=8108.4kbits/s speed=74.8x    frame=903624 fps=4491 q=-1.0 size=14906368kB time=04:10:53.49 bitrate=8111.9kbits/s speed=74.8x    frame=905861 fps=4491 q=-1.0 size=14945024kB time=04:11:30.80 bitrate=8112.9kbits/s speed=74.8x    frame=907695 fps=4489 q=-1.0 size=14981632kB time=04:12:01.35 bitrate=8116.3kbits/s speed=74.8x    frame=909775 fps=4488 q=-1.0 size=15022592kB time=04:12:35.99 bitrate=8119.9kbits/s speed=74.8x    frame=912924 fps=4492 q=-1.0 size=15058944kB time=04:13:28.45 bitrate=8111.5kbits/s speed=74.8x    frame=915089 fps=4492 q=-1.0 size=15094784kB time=04:14:04.48 bitrate=8111.6kbits/s speed=74.8x    frame=917682 fps=4493 q=-1.0 size=15133696kB time=04:14:47.71 bitrate=8109.5kbits/s speed=74.9x    frame=919652 fps=4492 q=-1.0 size=15171328kB time=04:15:20.51 bitrate=8112.2kbits/s speed=74.8x    frame=921610 fps=4491 q=-1.0 size=15209472kB time=04:15:53.13 bitrate=8115.3kbits/s speed=74.8x    frame=924253 fps=4493 q=-1.0 size=15257088kB time=04:16:37.17 bitrate=8117.5kbits/s speed=74.8x    frame=926513 fps=4493 q=-1.0 size=15301120kB time=04:17:14.82 bitrate=8121.0kbits/s speed=74.8x    frame=929110 fps=4494 q=-1.0 size=15348480kB time=04:17:58.09 bitrate=8123.4kbits/s speed=74.9x    frame=931529 fps=4495 q=-1.0 size=15394560kB time=04:18:38.40 bitrate=8126.6kbits/s speed=74.9x    frame=933650 fps=4495 q=-1.0 size=15435008kB time=04:19:13.73 bitrate=8129.5kbits/s speed=74.9x    frame=935549 fps=4493 q=-1.0 size=15471616kB time=04:19:45.41 bitrate=8132.2kbits/s speed=74.8x    frame=937745 fps=4493 q=-1.0 size=15511552kB time=04:20:21.96 bitrate=8134.1kbits/s speed=74.8x    frame=939869 fps=4492 q=-1.0 size=15549952kB time=04:20:57.38 bitrate=8135.8kbits/s speed=74.8x    frame=941805 fps=4491 q=-1.0 size=15585024kB time=04:21:29.60 bitrate=8137.4kbits/s speed=74.8x    frame=943908 fps=4490 q=-1.0 size=15625984kB time=04:22:04.66 bitrate=8140.6kbits/s speed=74.8x    frame=945914 fps=4489 q=-1.0 size=15664640kB time=04:22:38.07 bitrate=8143.4kbits/s speed=74.8x    frame=947866 fps=4487 q=-1.0 size=15699968kB time=04:23:10.56 bitrate=8145.0kbits/s speed=74.8x    frame=950045 fps=4487 q=-1.0 size=15740416kB time=04:23:46.89 bitrate=8147.2kbits/s speed=74.7x    frame=952041 fps=4486 q=-1.0 size=15779840kB time=04:24:20.13 bitrate=8150.5kbits/s speed=74.7x    frame=953999 fps=4484 q=-1.0 size=15816960kB time=04:24:52.76 bitrate=8152.9kbits/s speed=74.7x    frame=956212 fps=4484 q=-1.0 size=15857920kB time=04:25:29.60 bitrate=8155.1kbits/s speed=74.7x    frame=958244 fps=4483 q=-1.0 size=15897600kB time=04:26:03.42 bitrate=8158.2kbits/s speed=74.7x    frame=960274 fps=4482 q=-1.0 size=15937024kB time=04:26:37.27 bitrate=8161.1kbits/s speed=74.7x    frame=962411 fps=4482 q=-1.0 size=15978240kB time=04:27:12.87 bitrate=8164.1kbits/s speed=74.7x    frame=964317 fps=4480 q=-1.0 size=16014848kB time=04:27:44.60 bitrate=8166.6kbits/s speed=74.6x    frame=966349 fps=4479 q=-1.0 size=16051968kB time=04:28:18.46 bitrate=8168.3kbits/s speed=74.6x    frame=968435 fps=4479 q=-1.0 size=16091392kB time=04:28:53.21 bitrate=8170.8kbits/s speed=74.6x    frame=970835 fps=4479 q=-1.0 size=16137216kB time=04:29:33.19 bitrate=8173.8kbits/s speed=74.6x    frame=973222 fps=4480 q=-1.0 size=16181248kB time=04:30:12.97 bitrate=8176.0kbits/s speed=74.6x    frame=975272 fps=4479 q=-1.0 size=16220672kB time=04:30:47.09 bitrate=8178.7kbits/s speed=74.6x    frame=977375 fps=4478 q=-1.0 size=16259584kB time=04:31:22.11 bitrate=8180.7kbits/s speed=74.6x    frame=979492 fps=4478 q=-1.0 size=16300800kB time=04:31:57.41 bitrate=8183.7kbits/s speed=74.6x    frame=981559 fps=4477 q=-1.0 size=16340736kB time=04:32:31.82 bitrate=8186.4kbits/s speed=74.6x    frame=983510 fps=4476 q=-1.0 size=16377856kB time=04:33:04.31 bitrate=8188.8kbits/s speed=74.6x    frame=985458 fps=4474 q=-1.0 size=16416000kB time=04:33:36.80 bitrate=8191.6kbits/s speed=74.5x    frame=987613 fps=4474 q=-1.0 size=16455680kB time=04:34:12.72 bitrate=8193.5kbits/s speed=74.5x    frame=989898 fps=4474 q=-1.0 size=16496128kB time=04:34:50.77 bitrate=8194.7kbits/s speed=74.5x    frame=992104 fps=4474 q=-1.0 size=16538880kB time=04:35:27.50 bitrate=8197.6kbits/s speed=74.5x    frame=994209 fps=4473 q=-1.0 size=16579840kB time=04:36:02.60 bitrate=8200.5kbits/s speed=74.5x    frame=996248 fps=4473 q=-1.0 size=16616704kB time=04:36:36.57 bitrate=8201.9kbits/s speed=74.5x    frame=1000179 fps=4480 q=-1.0 size=16650240kB time=04:37:42.05 bitrate=8186.2kbits/s speed=74.6x    frame=1003624 fps=4486 q=-1.0 size=16688128kB time=04:38:39.43 bitrate=8176.7kbits/s speed=74.7x    frame=1005416 fps=4484 q=-1.0 size=16724992kB time=04:39:09.28 bitrate=8180.1kbits/s speed=74.7x    frame=1007881 fps=4485 q=-1.0 size=16764928kB time=04:39:50.31 bitrate=8179.6kbits/s speed=74.7x    frame=1009655 fps=4482 q=-1.0 size=16801280kB time=04:40:19.86 bitrate=8182.9kbits/s speed=74.7x    frame=1011259 fps=4480 q=-1.0 size=16835072kB time=04:40:46.56 bitrate=8186.4kbits/s speed=74.6x    frame=1012884 fps=4477 q=-1.0 size=16868608kB time=04:41:13.63 bitrate=8189.6kbits/s speed=74.6x    frame=1014755 fps=4475 q=-1.0 size=16907264kB time=04:41:44.77 bitrate=8193.2kbits/s speed=74.6x    frame=1016436 fps=4473 q=-1.0 size=16942080kB time=04:42:12.81 bitrate=8196.5kbits/s speed=74.5x    frame=1018161 fps=4471 q=-1.0 size=16977920kB time=04:42:41.53 bitrate=8199.9kbits/s speed=74.5x    frame=1020013 fps=4469 q=-1.0 size=17016576kB time=04:43:12.36 bitrate=8203.7kbits/s speed=74.4x    frame=1021979 fps=4468 q=-1.0 size=17057280kB time=04:43:45.12 bitrate=8207.5kbits/s speed=74.4x    frame=1023784 fps=4466 q=-1.0 size=17094656kB time=04:44:15.14 bitrate=8211.0kbits/s speed=74.4x    frame=1025847 fps=4465 q=-1.0 size=17137408kB time=04:44:49.53 bitrate=8214.9kbits/s speed=74.4x    frame=1027592 fps=4463 q=-1.0 size=17173760kB time=04:45:18.57 bitrate=8218.4kbits/s speed=74.3x    frame=1029335 fps=4461 q=-1.0 size=17210368kB time=04:45:47.61 bitrate=8222.0kbits/s speed=74.3x    frame=1031158 fps=4459 q=-1.0 size=17248000kB time=04:46:17.98 bitrate=8225.4kbits/s speed=74.3x    frame=1032781 fps=4456 q=-1.0 size=17281792kB time=04:46:44.98 bitrate=8228.6kbits/s speed=74.2x    frame=1034625 fps=4455 q=-1.0 size=17320192kB time=04:47:15.73 bitrate=8232.1kbits/s speed=74.2x    frame=1036465 fps=4453 q=-1.0 size=17358336kB time=04:47:46.34 bitrate=8235.6kbits/s speed=74.2x    frame=1038221 fps=4451 q=-1.0 size=17394432kB time=04:48:15.57 bitrate=8238.8kbits/s speed=74.2x    frame=1040127 fps=4450 q=-1.0 size=17428480kB time=04:48:47.34 bitrate=8239.8kbits/s speed=74.1x    frame=1042021 fps=4448 q=-1.0 size=17467648kB time=04:49:18.90 bitrate=8243.3kbits/s speed=74.1x    frame=1044243 fps=4448 q=-1.0 size=17503744kB time=04:49:55.89 bitrate=8242.8kbits/s speed=74.1x    frame=1046015 fps=4446 q=-1.0 size=17540864kB time=04:50:25.38 bitrate=8246.3kbits/s speed=74.1x    frame=1047987 fps=4445 q=-1.0 size=17581312kB time=04:50:58.23 bitrate=8249.8kbits/s speed=74.1x    frame=1049743 fps=4443 q=-1.0 size=17617920kB time=04:51:27.47 bitrate=8253.1kbits/s speed=  74x    frame=1051683 fps=4442 q=-1.0 size=17658368kB time=04:51:59.75 bitrate=8256.8kbits/s speed=  74x    frame=1053453 fps=4440 q=-1.0 size=17694976kB time=04:52:29.26 bitrate=8260.0kbits/s speed=  74x    frame=1055013 fps=4437 q=-1.0 size=17727488kB time=04:52:55.25 bitrate=8263.0kbits/s speed=73.9x    frame=1056932 fps=4436 q=-1.0 size=17767424kB time=04:53:27.18 bitrate=8266.6kbits/s speed=73.9x    frame=1059086 fps=4436 q=-1.0 size=17812224kB time=04:54:03.09 bitrate=8270.5kbits/s speed=73.9x    frame=1061034 fps=4435 q=-1.0 size=17852672kB time=04:54:35.55 bitrate=8274.1kbits/s speed=73.9x    frame=1062987 fps=4434 q=-1.0 size=17893120kB time=04:55:08.09 bitrate=8277.6kbits/s speed=73.9x    frame=1064855 fps=4432 q=-1.0 size=17932288kB time=04:55:39.19 bitrate=8281.2kbits/s speed=73.8x    frame=1066688 fps=4431 q=-1.0 size=17970176kB time=04:56:09.73 bitrate=8284.4kbits/s speed=73.8x    frame=1068567 fps=4429 q=-1.0 size=18009344kB time=04:56:40.99 bitrate=8287.9kbits/s speed=73.8x    frame=1070379 fps=4427 q=-1.0 size=18046976kB time=04:57:11.21 bitrate=8291.1kbits/s speed=73.8x    frame=1072358 fps=4427 q=-1.0 size=18082048kB time=04:57:44.17 bitrate=8291.9kbits/s speed=73.7x    frame=1074603 fps=4427 q=-1.0 size=18122496kB time=04:58:21.58 bitrate=8293.1kbits/s speed=73.7x    frame=1076582 fps=4426 q=-1.0 size=18162176kB time=04:58:54.53 bitrate=8296.0kbits/s speed=73.7x    frame=1078377 fps=4424 q=-1.0 size=18199552kB time=04:59:24.43 bitrate=8299.2kbits/s speed=73.7x    frame=1079977 fps=4421 q=-1.0 size=18232576kB time=04:59:51.06 bitrate=8302.0kbits/s speed=73.7x    frame=1081515 fps=4419 q=-1.0 size=18264576kB time=05:00:16.69 bitrate=8304.7kbits/s speed=73.6x    frame=1083053 fps=4416 q=-1.0 size=18296576kB time=05:00:42.29 bitrate=8307.5kbits/s speed=73.6x    frame=1084609 fps=4413 q=-1.0 size=18328832kB time=05:01:08.22 bitrate=8310.2kbits/s speed=73.5x    frame=1086312 fps=4411 q=-1.0 size=18364416kB time=05:01:36.59 bitrate=8313.2kbits/s speed=73.5x    frame=1087992 fps=4409 q=-1.0 size=18399232kB time=05:02:04.58 bitrate=8316.1kbits/s speed=73.5x    frame=1089660 fps=4407 q=-1.0 size=18434048kB time=05:02:32.36 bitrate=8319.1kbits/s speed=73.4x    frame=1091457 fps=4405 q=-1.0 size=18471424kB time=05:03:02.30 bitrate=8322.3kbits/s speed=73.4x    frame=1093153 fps=4403 q=-1.0 size=18506240kB time=05:03:30.55 bitrate=8325.0kbits/s speed=73.4x    frame=1095017 fps=4402 q=-1.0 size=18544896kB time=05:04:01.61 bitrate=8328.2kbits/s speed=73.3x    frame=1096740 fps=4400 q=-1.0 size=18580992kB time=05:04:30.31 bitrate=8331.3kbits/s speed=73.3x    frame=1098537 fps=4398 q=-1.0 size=18618624kB time=05:05:00.23 bitrate=8334.5kbits/s speed=73.3x    frame=1100393 fps=4397 q=-1.0 size=18656768kB time=05:05:31.16 bitrate=8337.5kbits/s speed=73.2x    frame=1102382 fps=4396 q=-1.0 size=18697984kB time=05:06:04.28 bitrate=8340.9kbits/s speed=73.2x    frame=1104383 fps=4395 q=-1.0 size=18739712kB time=05:06:37.61 bitrate=8344.3kbits/s speed=73.2x    frame=1106043 fps=4393 q=-1.0 size=18774272kB time=05:07:05.27 bitrate=8347.2kbits/s speed=73.2x    frame=1107913 fps=4392 q=-1.0 size=18811392kB time=05:07:36.42 bitrate=8349.6kbits/s speed=73.2x    frame=1110047 fps=4392 q=-1.0 size=18850560kB time=05:08:11.95 bitrate=8350.9kbits/s speed=73.2x    frame=1112106 fps=4391 q=-1.0 size=18886144kB time=05:08:46.27 bitrate=8351.1kbits/s speed=73.1x    frame=1114013 fps=4390 q=-1.0 size=18925056kB time=05:09:18.04 bitrate=8354.0kbits/s speed=73.1x    frame=1115825 fps=4388 q=-1.0 size=18962432kB time=05:09:48.19 bitrate=8356.9kbits/s speed=73.1x    frame=1117574 fps=4387 q=-1.0 size=18999040kB time=05:10:17.37 bitrate=8359.9kbits/s speed=73.1x    frame=1119443 fps=4385 q=-1.0 size=19037696kB time=05:10:48.48 bitrate=8363.0kbits/s speed=73.1x    frame=1121259 fps=4384 q=-1.0 size=19075840kB time=05:11:18.75 bitrate=8366.2kbits/s speed=  73x    frame=1123012 fps=4382 q=-1.0 size=19112192kB time=05:11:47.94 bitrate=8369.0kbits/s speed=  73x    frame=1124890 fps=4381 q=-1.0 size=19151104kB time=05:12:19.20 bitrate=8372.1kbits/s speed=  73x    frame=1126705 fps=4379 q=-1.0 size=19188992kB time=05:12:49.42 bitrate=8375.1kbits/s speed=  73x    frame=1128507 fps=4378 q=-1.0 size=19226112kB time=05:13:19.46 bitrate=8377.9kbits/s speed=72.9x    frame=1130413 fps=4377 q=-1.0 size=19265536kB time=05:13:51.17 bitrate=8381.0kbits/s speed=72.9x    frame=1132196 fps=4375 q=-1.0 size=19302656kB time=05:14:20.89 bitrate=8383.9kbits/s speed=72.9x    frame=1133774 fps=4373 q=-1.0 size=19335680kB time=05:14:47.18 bitrate=8386.5kbits/s speed=72.8x    frame=1135565 fps=4371 q=-1.0 size=19372800kB time=05:15:17.00 bitrate=8389.4kbits/s speed=72.8x    frame=1137572 fps=4371 q=-1.0 size=19414272kB time=05:15:50.45 bitrate=8392.5kbits/s speed=72.8x    frame=1139552 fps=4370 q=-1.0 size=19455744kB time=05:16:23.44 bitrate=8395.8kbits/s speed=72.8x    frame=1141160 fps=4368 q=-1.0 size=19489280kB time=05:16:50.22 bitrate=8398.4kbits/s speed=72.8x    frame=1143109 fps=4367 q=-1.0 size=19529472kB time=05:17:22.69 bitrate=8401.4kbits/s speed=72.7x    frame=1145258 fps=4367 q=-1.0 size=19568384kB time=05:17:58.49 bitrate=8402.4kbits/s speed=72.7x    frame=1147213 fps=4366 q=-1.0 size=19601920kB time=05:18:31.01 bitrate=8402.4kbits/s speed=72.7x    frame=1149478 fps=4366 q=-1.0 size=19640576kB time=05:19:08.77 bitrate=8402.4kbits/s speed=72.7x    frame=1151365 fps=4365 q=-1.0 size=19679744kB time=05:19:40.20 bitrate=8405.4kbits/s speed=72.7x    frame=1152995 fps=4363 q=-1.0 size=19713536kB time=05:20:07.33 bitrate=8407.9kbits/s speed=72.7x    frame=1154810 fps=4361 q=-1.0 size=19751168kB time=05:20:37.56 bitrate=8410.7kbits/s speed=72.7x    frame=1156676 fps=4360 q=-1.0 size=19790080kB time=05:21:08.62 bitrate=8413.7kbits/s speed=72.6x    frame=1158332 fps=4358 q=-1.0 size=19824384kB time=05:21:36.23 bitrate=8416.2kbits/s speed=72.6x    frame=1160248 fps=4357 q=-1.0 size=19864320kB time=05:22:08.15 bitrate=8419.2kbits/s speed=72.6x    frame=1162134 fps=4356 q=-1.0 size=19903488kB time=05:22:39.53 bitrate=8422.2kbits/s speed=72.6x    frame=1163748 fps=4354 q=-1.0 size=19937280kB time=05:23:06.44 bitrate=8424.8kbits/s speed=72.5x    frame=1165582 fps=4353 q=-1.0 size=19975168kB time=05:23:36.97 bitrate=8427.5kbits/s speed=72.5x    frame=1167476 fps=4352 q=-1.0 size=20014592kB time=05:24:08.54 bitrate=8430.4kbits/s speed=72.5x    frame=1169339 fps=4351 q=-1.0 size=20053248kB time=05:24:39.57 bitrate=8433.3kbits/s speed=72.5x    frame=1171506 fps=4351 q=-1.0 size=20098304kB time=05:25:15.67 bitrate=8436.6kbits/s speed=72.5x    frame=1173669 fps=4350 q=-1.0 size=20143360kB time=05:25:51.68 bitrate=8439.9kbits/s speed=72.5x    frame=1175452 fps=4349 q=-1.0 size=20180224kB time=05:26:21.38 bitrate=8442.5kbits/s speed=72.4x    frame=1177646 fps=4349 q=-1.0 size=20225792kB time=05:26:57.90 bitrate=8445.8kbits/s speed=72.5x    frame=1179396 fps=4348 q=-1.0 size=20262144kB time=05:27:27.05 bitrate=8448.5kbits/s speed=72.4x    frame=1181503 fps=4347 q=-1.0 size=20300288kB time=05:28:02.16 bitrate=8449.3kbits/s speed=72.4x    frame=1183432 fps=4346 q=-1.0 size=20338176kB time=05:28:34.28 bitrate=8451.2kbits/s speed=72.4x    frame=1185400 fps=4346 q=-1.0 size=20374272kB time=05:29:07.07 bitrate=8452.2kbits/s speed=72.4x    frame=1186885 fps=4343 q=-1.0 size=20405248kB time=05:29:31.81 bitrate=8454.4kbits/s speed=72.4x    frame=1188543 fps=4341 q=-1.0 size=20439808kB time=05:29:59.41 bitrate=8457.0kbits/s speed=72.3x    frame=1190264 fps=4340 q=-1.0 size=20475392kB time=05:30:28.11 bitrate=8459.4kbits/s speed=72.3x    frame=1191949 fps=4338 q=-1.0 size=20510464kB time=05:30:56.13 bitrate=8462.0kbits/s speed=72.3x    frame=1193592 fps=4336 q=-1.0 size=20544512kB time=05:31:23.52 bitrate=8464.3kbits/s speed=72.2x    frame=1195446 fps=4335 q=-1.0 size=20582912kB time=05:31:54.37 bitrate=8467.0kbits/s speed=72.2x    frame=1197135 fps=4333 q=-1.0 size=20618240kB time=05:32:22.52 bitrate=8469.6kbits/s speed=72.2x    frame=1198854 fps=4331 q=-1.0 size=20654080kB time=05:32:51.14 bitrate=8472.1kbits/s speed=72.2x    frame=1200712 fps=4330 q=-1.0 size=20692480kB time=05:33:22.06 bitrate=8474.8kbits/s speed=72.1x    frame=1202443 fps=4329 q=-1.0 size=20728576kB time=05:33:50.94 bitrate=8477.3kbits/s speed=72.1x    frame=1204210 fps=4327 q=-1.0 size=20765440kB time=05:34:20.34 bitrate=8479.9kbits/s speed=72.1x    frame=1206059 fps=4326 q=-1.0 size=20803840kB time=05:34:51.15 bitrate=8482.6kbits/s speed=72.1x    frame=1207821 fps=4325 q=-1.0 size=20840448kB time=05:35:20.48 bitrate=8485.1kbits/s speed=  72x    frame=1209579 fps=4323 q=-1.0 size=20876800kB time=05:35:49.76 bitrate=8487.6kbits/s speed=  72x    frame=1211416 fps=4322 q=-1.0 size=20914944kB time=05:36:20.36 bitrate=8490.2kbits/s speed=  72x    frame=1213166 fps=4321 q=-1.0 size=20951552kB time=05:36:49.50 bitrate=8492.8kbits/s speed=  72x    frame=1214880 fps=4319 q=-1.0 size=20986880kB time=05:37:18.02 bitrate=8495.1kbits/s speed=71.9x    frame=1216931 fps=4319 q=-1.0 size=21025280kB time=05:37:52.19 bitrate=8496.3kbits/s speed=71.9x    frame=1218570 fps=4317 q=-1.0 size=21059072kB time=05:38:19.51 bitrate=8498.5kbits/s speed=71.9x    frame=1220643 fps=4316 q=-1.0 size=21093632kB time=05:38:54.00 bitrate=8498.0kbits/s speed=71.9x    frame=1222443 fps=4315 q=-1.0 size=21130752kB time=05:39:24.02 bitrate=8500.4kbits/s speed=71.9x    frame=1224211 fps=4314 q=-1.0 size=21167360kB time=05:39:53.45 bitrate=8502.9kbits/s speed=71.9x    frame=1225906 fps=4312 q=-1.0 size=21202944kB time=05:40:21.68 bitrate=8505.4kbits/s speed=71.8x    frame=1227761 fps=4311 q=-1.0 size=21241088kB time=05:40:52.56 bitrate=8507.8kbits/s speed=71.8x    frame=1229515 fps=4310 q=-1.0 size=21277696kB time=05:41:21.79 bitrate=8510.3kbits/s speed=71.8x    frame=1231309 fps=4308 q=-1.0 size=21314816kB time=05:41:51.65 bitrate=8512.8kbits/s speed=71.8x    frame=1233148 fps=4307 q=-1.0 size=21353216kB time=05:42:22.30 bitrate=8515.4kbits/s speed=71.8x    frame=1234903 fps=4306 q=-1.0 size=21389824kB time=05:42:51.53 bitrate=8517.9kbits/s speed=71.7x    frame=1236548 fps=4304 q=-1.0 size=21423872kB time=05:43:18.92 bitrate=8520.1kbits/s speed=71.7x    frame=1238286 fps=4303 q=-1.0 size=21459968kB time=05:43:47.87 bitrate=8522.5kbits/s speed=71.7x    frame=1240044 fps=4301 q=-1.0 size=21496576kB time=05:44:17.14 bitrate=8524.9kbits/s speed=71.7x    frame=1241686 fps=4300 q=-1.0 size=21530624kB time=05:44:44.48 bitrate=8527.1kbits/s speed=71.6x    frame=1243510 fps=4298 q=-1.0 size=21568512kB time=05:45:14.87 bitrate=8529.6kbits/s speed=71.6x    frame=1245257 fps=4297 q=-1.0 size=21604608kB time=05:45:43.97 bitrate=8531.9kbits/s speed=71.6x    frame=1246903 fps=4295 q=-1.0 size=21638912kB time=05:46:11.39 bitrate=8534.1kbits/s speed=71.6x    frame=1248701 fps=4294 q=-1.0 size=21676288kB time=05:46:41.34 bitrate=8536.6kbits/s speed=71.5x    frame=1250381 fps=4293 q=-1.0 size=21711104kB time=05:47:09.32 bitrate=8538.8kbits/s speed=71.5x    frame=1252182 fps=4291 q=-1.0 size=21748480kB time=05:47:39.29 bitrate=8541.2kbits/s speed=71.5x    frame=1253978 fps=4290 q=-1.0 size=21786112kB time=05:48:09.22 bitrate=8543.7kbits/s speed=71.5x    frame=1256035 fps=4290 q=-1.0 size=21822720kB time=05:48:43.45 bitrate=8544.1kbits/s speed=71.5x    frame=1257714 fps=4288 q=-1.0 size=21857792kB time=05:49:11.43 bitrate=8546.4kbits/s speed=71.4x    frame=1259734 fps=4288 q=-1.0 size=21894144kB time=05:49:45.06 bitrate=8546.9kbits/s speed=71.4x    frame=1261476 fps=4286 q=-1.0 size=21930240kB time=05:50:14.08 bitrate=8549.1kbits/s speed=71.4x    frame=1263309 fps=4285 q=-1.0 size=21968128kB time=05:50:44.61 bitrate=8551.5kbits/s speed=71.4x    frame=1265140 fps=4284 q=-1.0 size=22006272kB time=05:51:15.12 bitrate=8553.9kbits/s speed=71.4x    frame=1266822 fps=4283 q=-1.0 size=22041344kB time=05:51:43.13 bitrate=8556.2kbits/s speed=71.3x    frame=1268480 fps=4281 q=-1.0 size=22075648kB time=05:52:10.72 bitrate=8558.3kbits/s speed=71.3x    frame=1270324 fps=4280 q=-1.0 size=22114048kB time=05:52:41.45 bitrate=8560.8kbits/s speed=71.3x    frame=1272123 fps=4279 q=-1.0 size=22151680kB time=05:53:11.41 bitrate=8563.2kbits/s speed=71.3x    frame=1273867 fps=4278 q=-1.0 size=22187776kB time=05:53:40.47 bitrate=8565.4kbits/s speed=71.3x    frame=1275354 fps=4275 q=-1.0 size=22218496kB time=05:54:05.23 bitrate=8567.3kbits/s speed=71.2x    frame=1276886 fps=4273 q=-1.0 size=22250240kB time=05:54:30.71 bitrate=8569.2kbits/s speed=71.2x    frame=1278711 fps=4272 q=-1.0 size=22288128kB time=05:55:01.14 bitrate=8571.6kbits/s speed=71.2x    frame=1280504 fps=4271 q=-1.0 size=22325760kB time=05:55:31.01 bitrate=8574.0kbits/s speed=71.2x    frame=1282347 fps=4270 q=-1.0 size=22363904kB time=05:56:01.72 bitrate=8576.3kbits/s speed=71.1x    frame=1284339 fps=4270 q=-1.0 size=22405120kB time=05:56:34.91 bitrate=8578.8kbits/s speed=71.1x    frame=1286059 fps=4268 q=-1.0 size=22440448kB time=05:57:03.57 bitrate=8580.8kbits/s speed=71.1x    frame=1287924 fps=4267 q=-1.0 size=22479616kB time=05:57:34.63 bitrate=8583.4kbits/s speed=71.1x    frame=1289578 fps=4266 q=-1.0 size=22513920kB time=05:58:02.18 bitrate=8585.4kbits/s speed=71.1x    frame=1291139 fps=4264 q=-1.0 size=22546176kB time=05:58:28.15 bitrate=8587.4kbits/s speed=  71x    frame=1293207 fps=4264 q=-1.0 size=22583552kB time=05:59:02.60 bitrate=8587.8kbits/s speed=  71x    frame=1294961 fps=4262 q=-1.0 size=22618624kB time=05:59:31.82 bitrate=8589.5kbits/s speed=  71x    frame=1296635 fps=4261 q=-1.0 size=22648576kB time=05:59:59.70 bitrate=8589.8kbits/s speed=  71x    frame=1298182 fps=4259 q=-1.0 size=22680832kB time=06:00:25.47 bitrate=8591.8kbits/s speed=70.9x    frame=1299730 fps=4257 q=-1.0 size=22713088kB time=06:00:51.27 bitrate=8593.8kbits/s speed=70.9x    frame=1301307 fps=4255 q=-1.0 size=22745856kB time=06:01:17.52 bitrate=8595.7kbits/s speed=70.9x    frame=1303087 fps=4254 q=-1.0 size=22782720kB time=06:01:47.20 bitrate=8597.9kbits/s speed=70.9x    frame=1304785 fps=4253 q=-1.0 size=22818048kB time=06:02:15.48 bitrate=8600.0kbits/s speed=70.8x    frame=1306734 fps=4252 q=-1.0 size=22858752kB time=06:02:47.94 bitrate=8602.5kbits/s speed=70.8x    frame=1308723 fps=4252 q=-1.0 size=22899968kB time=06:03:21.07 bitrate=8604.9kbits/s speed=70.8x    frame=1310582 fps=4251 q=-1.0 size=22938624kB time=06:03:52.03 bitrate=8607.2kbits/s speed=70.8x    frame=1312506 fps=4250 q=-1.0 size=22978560kB time=06:04:24.07 bitrate=8609.6kbits/s speed=70.8x    frame=1314670 fps=4250 q=-1.0 size=23023616kB time=06:05:00.15 bitrate=8612.2kbits/s speed=70.8x    frame=1316689 fps=4250 q=-1.0 size=23065600kB time=06:05:33.75 bitrate=8614.7kbits/s speed=70.8x    frame=1318612 fps=4249 q=-1.0 size=23105280kB time=06:06:05.83 bitrate=8616.9kbits/s speed=70.8x    frame=1320310 fps=4248 q=-1.0 size=23140608kB time=06:06:34.07 bitrate=8619.0kbits/s speed=70.8x    frame=1322075 fps=4247 q=-1.0 size=23177472kB time=06:07:03.49 bitrate=8621.2kbits/s speed=70.7x    frame=1323969 fps=4246 q=-1.0 size=23216384kB time=06:07:35.05 bitrate=8623.4kbits/s speed=70.7x    frame=1325739 fps=4245 q=-1.0 size=23253248kB time=06:08:04.54 bitrate=8625.5kbits/s speed=70.7x    frame=1327915 fps=4245 q=-1.0 size=23290368kB time=06:08:40.78 bitrate=8625.1kbits/s speed=70.7x    frame=1328823 fps=4246 q=-1.0 Lsize=23302749kB time=06:08:55.87 bitrate=8623.8kbits/s speed=70.7x    
video:22731029kB audio:527229kB subtitle:0kB other streams:0kB global headers:0kB muxing overhead: 0.191294%
